<svg width="956" height="956" viewBox="0 0 956 956" fill="none" xmlns="http://www.w3.org/2000/svg">
<circle cx="477.897" cy="477.897" r="477.897" fill="black"/>
<path d="M578.775 312.047H705.545L655.84 611.189C650.064 646.758 636.536 677.538 615.255 703.531C594.127 729.371 567.222 749.359 534.542 763.496C501.861 777.48 465.533 784.472 425.556 784.472C385.275 784.472 351.226 777.48 323.41 763.496C295.593 749.359 275.377 729.371 262.761 703.531C250.296 677.538 246.952 646.758 252.729 611.189L302.433 312.047H429.204L381.323 600.245C379.043 614.685 380.183 627.529 384.743 638.777C389.303 650.026 396.675 658.918 406.859 665.454C417.044 671.838 429.356 675.03 443.796 675.03C458.388 675.03 471.841 671.838 484.153 665.454C496.617 658.918 506.953 650.026 515.161 638.777C523.37 627.529 528.614 614.685 530.894 600.245L578.775 312.047ZM446.076 271.006C428.748 271.006 414.916 265.078 404.579 253.222C394.243 241.366 390.443 227.23 393.179 210.813C395.459 198.045 401.995 187.253 412.788 178.437C423.732 169.621 436.044 165.212 449.724 165.212C466.597 165.212 479.973 171.141 489.853 182.997C499.885 194.853 503.533 208.989 500.797 225.406C498.973 238.174 492.665 248.966 481.873 257.782C471.233 266.598 459.3 271.006 446.076 271.006ZM591.087 271.006C573.759 271.006 559.926 265.078 549.59 253.222C539.254 241.366 535.454 227.23 538.19 210.813C540.47 198.045 547.006 187.253 557.798 178.437C568.742 169.621 581.055 165.212 594.735 165.212C611.607 165.212 624.984 171.141 634.864 182.997C644.896 194.853 648.544 208.989 645.808 225.406C643.984 238.174 637.676 248.966 626.884 257.782C616.243 266.598 604.311 271.006 591.087 271.006Z" fill="white"/>
</svg>
